<?xml version="1.0" encoding="UTF-8"?>
<!DOCTYPE svg PUBLIC "-//W3C//DTD SVG 1.0//EN" "http://www.w3.org/TR/2001/REC-SVG-20010904/DTD/svg10.dtd">
<!-- Creator: CorelDRAW -->
<svg xmlns="http://www.w3.org/2000/svg" xml:space="preserve" width="45.05mm" height="8.4399mm" version="1.0" style="shape-rendering:geometricPrecision; text-rendering:geometricPrecision; image-rendering:optimizeQuality; fill-rule:evenodd; clip-rule:evenodd"
viewBox="0 0 8419 1577"
 xmlns:xlink="http://www.w3.org/1999/xlink"
 xmlns:xodm="http://www.corel.com/coreldraw/odm/2003">
 <defs>
  <style type="text/css">
   <![CDATA[
    .fil3 {fill:#3262AC}
    .fil2 {fill:#FEFEFE;fill-rule:nonzero}
    .fil1 {fill:#373C44;fill-rule:nonzero}
    .fil0 {fill:#007BFF;fill-rule:nonzero}
    .fil4 {fill:white;fill-rule:nonzero}
   ]]>
  </style>
   <clipPath id="id0">
    <path d="M7561 1577l-5334 0c-51,0 -104,-13 -152,-40 -2,-2 -6,-3 -7,-5l3622 0 148 -260 1723 0 554 -967 -1725 0 148 -260 -3917 0c2,-1 4,-2 6,-4l0 0c44,-26 97,-41 152,-41l5334 0 2 0c49,0 103,13 150,40 147,84 198,270 114,417l0 0 -552 966 0 0c-53,92 -152,154 -266,154l0 0z"/>
   </clipPath>
 </defs>
 <g id="_0">
  <metadata id="CorelCorpID_0Corel-Layer"/>
  <polygon class="fil0" points="849,45 0,1532 5689,1532 6538,45 "/>
  <polygon class="fil1" points="5837,1272 2226,1272 2779,305 6389,305 "/>
  <polygon class="fil2" points="2779,305 2226,1272 7561,1272 8113,305 "/>
  <g style="clip-path:url(#id0)">
   <image x="2032" y="-49" width="6467" height="1659" xlink:href="Botao__1_Images\Botao__1_ImgID1.png"/>
  </g>
  <path class="fil3" d="M6390 305l148 -260 -3917 0c-39,22 -75,56 -106,108l-553 967c-71,163 -48,304 105,412l3622 0 149 -260 -3611 0 553 -967 3611 0z"/>
  <polygon class="fil4" points="1422,1035 1340,1035 1258,1035 1176,1035 1176,953 1258,953 1258,871 1258,789 1258,707 1258,624 1176,624 1176,542 1258,542 1340,542 1422,542 1422,624 1422,707 1422,789 1422,871 1422,953 1504,953 1504,1035 "/>
  <path class="fil0" d="M3145 991l-58 0 -58 0 -58 0 -58 0 0 -58 0 -58 0 -58 0 -58 0 -58 0 -58 58 0 58 0 58 0 58 0 58 0 0 58 0 58 -58 0 -58 0 0 -58 -58 0 0 58 0 58 0 58 0 58 58 0 0 -58 58 0 58 0 0 58 0 58 -58 0zm347 0l-58 0 -58 0 -58 0 -58 0 0 -58 0 -58 0 -58 0 -58 0 -58 0 -58 58 0 58 0 58 0 58 0 58 0 0 58 0 58 0 58 0 58 0 58 0 58 -58 0zm-58 -58l0 -58 0 -58 0 -58 0 -58 -58 0 0 58 0 58 0 58 0 58 58 0zm463 58l-58 0 0 -58 0 -58 -58 0 0 -58 -58 0 0 58 0 58 0 58 -58 0 -58 0 0 -58 0 -58 0 -58 0 -58 0 -58 0 -58 58 0 58 0 0 58 58 0 0 58 58 0 0 -58 0 -58 58 0 58 0 0 58 0 58 0 58 0 58 0 58 0 58 -58 0zm174 0l-58 0 0 -58 0 -58 0 -58 0 -58 0 -58 0 -58 58 0 58 0 58 0 58 0 58 0 0 58 -58 0 -58 0 -58 0 0 58 0 58 58 0 58 0 58 0 0 58 -58 0 -58 0 -58 0 0 58 0 58 -58 0zm463 0l-58 0 -58 0 -58 0 0 -58 58 0 0 -58 0 -58 0 -58 0 -58 -58 0 0 -58 58 0 58 0 58 0 58 0 0 58 -58 0 0 58 0 58 0 58 0 58 58 0 0 58 -58 0zm347 0l-58 0 -58 0 -58 0 -58 0 0 -58 0 -58 0 -58 0 -58 0 -58 0 -58 58 0 58 0 58 0 58 0 58 0 0 58 0 58 -58 0 -58 0 0 -58 -58 0 0 58 0 58 0 58 0 58 58 0 0 -58 0 -58 58 0 58 0 0 58 0 58 0 58 -58 0zm347 0l-58 0 -58 0 -58 0 -58 0 0 -58 0 -58 0 -58 0 -58 0 -58 0 -58 58 0 58 0 0 58 0 58 0 58 0 58 0 58 58 0 0 -58 0 -58 0 -58 0 -58 0 -58 58 0 58 0 0 58 0 58 0 58 0 58 0 58 0 58 -58 0zm347 0l-58 0 0 -58 0 -58 -58 0 0 58 0 58 -58 0 -58 0 0 -58 0 -58 0 -58 0 -58 0 -58 0 -58 58 0 58 0 58 0 58 0 58 0 0 58 0 58 0 58 -58 0 0 58 58 0 0 58 0 58 -58 0zm-58 -174l0 -58 0 -58 -58 0 0 58 0 58 58 0zm405 174l-58 0 0 -58 0 -58 -58 0 0 58 0 58 -58 0 -58 0 0 -58 0 -58 0 -58 0 -58 0 -58 0 -58 58 0 58 0 58 0 58 0 58 0 0 58 0 58 0 58 0 58 0 58 0 58 -58 0zm-58 -174l0 -58 0 -58 -58 0 0 58 0 58 58 0zm289 289l-58 0 0 -58 58 0 0 -58 -58 0 -58 0 0 -58 0 -58 0 -58 0 -58 0 -58 0 -58 58 0 58 0 58 0 58 0 58 0 0 58 0 58 -58 0 -58 0 0 -58 -58 0 0 58 0 58 0 58 0 58 58 0 0 -58 58 0 58 0 0 58 0 58 -58 0 0 58 -58 0 0 58 -58 0zm463 -116l-58 0 -58 0 -58 0 -58 0 0 -58 0 -58 0 -58 0 -58 0 -58 0 -58 58 0 58 0 58 0 58 0 58 0 0 58 0 58 0 58 0 58 0 58 0 58 -58 0zm-58 -58l0 -58 0 -58 0 -58 0 -58 -58 0 0 58 0 58 0 58 0 58 58 0zm58 -347l-58 0 -58 0 0 -58 -58 0 0 58 -58 0 -58 0 0 -58 58 0 0 -58 58 0 58 0 58 0 0 58 58 0 0 -58 58 0 58 0 0 58 -58 0 0 58 -58 0zm405 405l-58 0 -58 0 -58 0 -58 0 0 -58 0 -58 0 -58 0 -58 0 -58 0 -58 58 0 58 0 58 0 58 0 58 0 0 58 -58 0 -58 0 -58 0 0 58 58 0 58 0 0 58 -58 0 -58 0 0 58 0 58 58 0 0 -58 58 0 58 0 0 58 0 58 -58 0zm347 0l-58 0 -58 0 -58 0 -58 0 0 -58 0 -58 58 0 58 0 0 58 58 0 0 -58 0 -58 -58 0 -58 0 -58 0 0 -58 0 -58 0 -58 58 0 58 0 58 0 58 0 58 0 0 58 -58 0 -58 0 -58 0 0 58 58 0 58 0 58 0 0 58 0 58 0 58 0 58 -58 0z"/>
 </g>
</svg>
