<?xml version="1.0" encoding="UTF-8"?>
<!DOCTYPE svg PUBLIC "-//W3C//DTD SVG 1.0//EN" "http://www.w3.org/TR/2001/REC-SVG-20010904/DTD/svg10.dtd">
<!-- Creator: CorelDRAW -->
<svg xmlns="http://www.w3.org/2000/svg" xml:space="preserve" width="45.0501mm" height="8.4399mm" version="1.0" style="shape-rendering:geometricPrecision; text-rendering:geometricPrecision; image-rendering:optimizeQuality; fill-rule:evenodd; clip-rule:evenodd"
viewBox="0 0 8385 1571"
 xmlns:xlink="http://www.w3.org/1999/xlink"
 xmlns:xodm="http://www.corel.com/coreldraw/odm/2003">
 <defs>
  <style type="text/css">
   <![CDATA[
    .fil3 {fill:#3262AC}
    .fil2 {fill:#FEFEFE;fill-rule:nonzero}
    .fil1 {fill:#373C44;fill-rule:nonzero}
    .fil0 {fill:#007BFF;fill-rule:nonzero}
    .fil4 {fill:white;fill-rule:nonzero}
   ]]>
  </style>
   <clipPath id="id0">
    <path d="M7530 1571l-5313 0c-51,0 -104,-13 -152,-40 -2,-2 -5,-3 -7,-5l3607 0 148 -259 1716 0 551 -963 -1718 0 148 -259 -3901 0c2,-1 4,-2 5,-4l0 0c44,-26 97,-41 152,-41l5312 0 2 0c49,0 102,13 150,40 146,83 197,269 113,415l0 0 -550 962 0 0c-53,91 -152,153 -265,153l0 0z"/>
   </clipPath>
 </defs>
 <g id="_0">
  <metadata id="CorelCorpID_0Corel-Layer"/>
  <polygon class="fil0" points="846,45 0,1526 5666,1526 6512,45 "/>
  <polygon class="fil1" points="5814,1267 2217,1267 2768,304 6364,304 "/>
  <polygon class="fil2" points="2768,304 2217,1267 7530,1267 8080,304 "/>
  <g style="clip-path:url(#id0)">
   <image x="2024" y="-49" width="6441" height="1652" xlink:href="Botao__2_Images\Botao__2_ImgID1.png"/>
  </g>
  <path class="fil3" d="M6365 304l147 -259 -3901 0c-38,22 -74,56 -106,108l-550 963c-70,163 -47,302 104,410l3607 0 148 -259 -3597 0 550 -963 3597 0z"/>
  <polygon class="fil4" points="1458,949 1539,949 1539,1031 1458,1031 1376,1031 1294,1031 1212,1031 1131,1031 1131,949 1131,867 1131,785 1212,785 1212,704 1294,704 1376,704 1376,622 1294,622 1212,622 1131,622 1131,540 1212,540 1294,540 1376,540 1458,540 1539,540 1539,622 1539,704 1539,785 1458,785 1376,785 1294,785 1294,867 1294,949 1376,949 "/>
  <path class="fil0" d="M3373 999l-74 0 -74 0 -74 0 -74 0 0 -74 0 -74 0 -74 0 -74 0 -74 0 -74 74 0 74 0 74 0 74 0 74 0 0 74 0 74 -74 0 -74 0 0 -74 -74 0 0 74 0 74 0 74 0 74 74 0 0 -74 74 0 74 0 0 74 0 74 -74 0zm369 0l-74 0 -74 0 -74 0 0 -74 74 0 0 -74 0 -74 0 -74 0 -74 -74 0 0 -74 74 0 74 0 74 0 74 0 0 74 -74 0 0 74 0 74 0 74 0 74 74 0 0 74 -74 0zm443 0l-74 0 0 -74 0 -74 -74 0 0 74 0 74 -74 0 -74 0 0 -74 0 -74 0 -74 0 -74 0 -74 0 -74 74 0 74 0 74 0 74 0 74 0 0 74 0 74 0 74 -74 0 0 74 74 0 0 74 0 74 -74 0zm-74 -222l0 -74 0 -74 -74 0 0 74 0 74 74 0zm517 222l-74 0 -74 0 -74 0 -74 0 0 -74 0 -74 0 -74 0 -74 0 -74 0 -74 74 0 74 0 74 0 74 0 74 0 0 74 0 74 -74 0 -74 0 0 -74 -74 0 0 74 0 74 0 74 0 74 74 0 0 -74 74 0 74 0 0 74 0 74 -74 0zm443 0l-74 0 -74 0 -74 0 -74 0 0 -74 0 -74 0 -74 0 -74 0 -74 0 -74 74 0 74 0 0 74 0 74 0 74 0 74 0 74 74 0 0 -74 0 -74 0 -74 0 -74 0 -74 74 0 74 0 0 74 0 74 0 74 0 74 0 74 0 74 -74 0zm369 0l-74 0 -74 0 -74 0 0 -74 74 0 0 -74 0 -74 0 -74 0 -74 -74 0 0 -74 74 0 74 0 74 0 74 0 0 74 -74 0 0 74 0 74 0 74 0 74 74 0 0 74 -74 0zm369 0l-74 0 0 -74 0 -74 0 -74 0 -74 0 -74 -74 0 -74 0 0 -74 74 0 74 0 74 0 74 0 74 0 74 0 0 74 -74 0 -74 0 0 74 0 74 0 74 0 74 0 74 -74 0zm591 0l-74 0 -74 0 -74 0 -74 0 0 -74 0 -74 0 -74 0 -74 0 -74 0 -74 74 0 74 0 74 0 74 0 74 0 0 74 0 74 0 74 0 74 0 74 0 74 -74 0zm-74 -74l0 -74 0 -74 0 -74 0 -74 -74 0 0 74 0 74 0 74 0 74 74 0zm517 74l-74 0 -74 0 -74 0 -74 0 0 -74 0 -74 74 0 74 0 0 74 74 0 0 -74 0 -74 -74 0 -74 0 -74 0 0 -74 0 -74 0 -74 74 0 74 0 74 0 74 0 74 0 0 74 -74 0 -74 0 -74 0 0 74 74 0 74 0 74 0 0 74 0 74 0 74 0 74 -74 0z"/>
 </g>
</svg>
