<?xml version="1.0" encoding="UTF-8"?>
<!DOCTYPE svg PUBLIC "-//W3C//DTD SVG 1.0//EN" "http://www.w3.org/TR/2001/REC-SVG-20010904/DTD/svg10.dtd">
<!-- Creator: CorelDRAW -->
<svg xmlns="http://www.w3.org/2000/svg" xml:space="preserve" width="162.56mm" height="91.44mm" version="1.0" style="shape-rendering:geometricPrecision; text-rendering:geometricPrecision; image-rendering:optimizeQuality; fill-rule:evenodd; clip-rule:evenodd"
viewBox="0 0 109710 61712"
 xmlns:xlink="http://www.w3.org/1999/xlink"
 xmlns:xodm="http://www.corel.com/coreldraw/odm/2003">
 <defs>
  <style type="text/css">
   <![CDATA[
    .str0 {stroke:black;stroke-width:51;stroke-miterlimit:22.9256;stroke-opacity:0.501961}
    .fil1 {fill:#007BFF}
    .fil2 {fill:black;fill-opacity:0.501961}
    .fil0 {fill:#007AFF;fill-opacity:0.749020}
   ]]>
  </style>
    <clipPath id="id0">
     <rect width="109710" height="61712"/>
    </clipPath>
 </defs>
 <g id="_0">
  <metadata id="CorelCorpID_0Corel-Layer"/>
  <g id="_1406249620784">
   <g style="clip-path:url(#id0)">
    <image id="WhatsApp_x0020_Image_x0020_2020-10-29_x0020_at_x0020_16.59.27_x0020_-_x0020_Copia.jpeg" x="0" y="0" width="109710" height="61712" xlink:href="Fundo_Tela_Images\Fundo_Tela_ImgID1.png"/>
   </g>
   <g>
    <polygon class="fil0" points="109710,57532 108483,61712 98267,61712 109710,22732 "/>
    <polygon class="fil0" points="15502,0 25954,0 7668,61712 0,61712 0,52319 "/>
    <polygon class="fil1" points="26971,0 28729,0 10694,61712 8936,61712 "/>
    <polygon class="fil1" points="29773,0 33061,0 15078,61712 11790,61712 "/>
    <polygon class="fil1" points="34122,0 37007,0 18891,61712 16006,61712 "/>
    <polygon class="fil1" points="37640,0 40927,0 22944,61712 19657,61712 "/>
    <polygon class="fil1" points="41989,0 44874,0 26757,61712 23872,61712 "/>
    <polygon class="fil1" points="46201,0 47959,0 29924,61712 28165,61712 "/>
    <polygon class="fil2" points="56539,0 66991,0 48706,61712 38254,61712 "/>
    <polygon class="fil2" points="61765,0 66991,0 48706,61712 43480,61712 "/>
    <polygon class="fil1" points="68792,0 71676,0 53560,61712 50675,61712 "/>
    <polygon class="fil1" points="72288,0 75427,0 57311,61712 54172,61712 "/>
    <polygon class="fil1" points="76658,0 79543,0 61427,61712 58542,61712 "/>
    <polygon class="fil1" points="80317,0 83202,0 65085,61712 62200,61712 "/>
    <polygon class="fil1" points="84268,0 87407,0 69291,61712 66151,61712 "/>
    <polygon class="fil1" points="88384,0 91523,0 73407,61712 70268,61712 "/>
    <polygon class="fil0" points="93657,0 103873,0 85757,61712 75541,61712 "/>
    <polygon class="fil2" points="6622,0 17073,0 0,57621 0,22348 "/>
    <polygon class="fil2" points="1396,0 11847,0 0,39984 0,4711 "/>
    <polygon class="fil2" points="98934,0 109710,0 109710,22732 98267,61712 80649,61712 "/>
    <polygon class="fil2" points="103873,0 109710,0 109710,30398 100432,61712 85757,61712 "/>
   </g>
  </g>
  <polygon class="fil2 str0" points="1687,1687 108023,1687 108023,60025 1687,60025 "/>
 </g>
</svg>
