<?xml version="1.0" encoding="UTF-8"?>
<!DOCTYPE svg PUBLIC "-//W3C//DTD SVG 1.0//EN" "http://www.w3.org/TR/2001/REC-SVG-20010904/DTD/svg10.dtd">
<!-- Creator: CorelDRAW -->
<svg xmlns="http://www.w3.org/2000/svg" xml:space="preserve" width="45.0232mm" height="32.1594mm" version="1.0" style="shape-rendering:geometricPrecision; text-rendering:geometricPrecision; image-rendering:optimizeQuality; fill-rule:evenodd; clip-rule:evenodd"
viewBox="0 0 8375 5982"
 xmlns:xlink="http://www.w3.org/1999/xlink"
 xmlns:xodm="http://www.corel.com/coreldraw/odm/2003">
 <defs>
  <style type="text/css">
   <![CDATA[
    .fil0 {fill:white}
   ]]>
  </style>
 </defs>
 <g id="_0">
  <metadata id="CorelCorpID_0Corel-Layer"/>
  <g id="_1405389419168">
   <path class="fil0" d="M0 5982l401 0 0 -395 2787 0 0 395 2692 0 14 0c143,0 286,-1 429,0l47 0c18,-6 12,-36 12,-165 0,-76 0,-153 0,-229l1190 0 0 -401 401 0 0 -401 401 0 0 -38 0 -2342c-3,-16 -10,-18 -25,-20l-382 0 0 795 -395 0 0 -795 -401 0 0 1203 795 0 0 471 0 325 -401 0 0 395 -1190 0 0 401 -2787 0 0 -401 -2794 0 0 401 -401 0 0 401 -395 0 0 401z"/>
   <path class="fil0" d="M2787 2806c0,-15 4,-19 19,-19l363 0c15,0 19,4 19,19l0 382 -401 0 0 -382zm-401 1578l1203 0 0 -388c0,-15 -4,-19 -19,-19l-776 0 0 -388 795 0 0 -1203 -1203 0 0 1998z"/>
   <path class="fil0" d="M3189 402l0 6 0 388 -395 2c-9,-12 -7,15 -7,-14 0,-71 -9,-336 4,-385 39,-7 237,-3 303,-3 20,0 84,-8 96,7zm-802 1577c0,15 4,19 19,19l1184 0 0 -407 -795 0 0 -395 795 0 0 -1196 -1203 0 0 1979z"/>
   <path class="fil0" d="M7172 1196l795 0 0 395 -795 0 0 407 1184 0c15,0 19,-4 19,-19l0 -1979 -407 0 0 795 -375 0c-15,0 -19,-4 -19,-19l0 -776 -401 0 0 1196z"/>
   <path class="fil0" d="M795 1998l401 0 0 -1578c0,-15 4,-19 19,-19l356 0c15,0 19,4 19,19l0 1578 388 0c15,0 19,-4 19,-19l0 -1960c0,-14 -4,-19 -18,-19l-1 0 -1184 0 0 1998z"/>
   <path class="fil0" d="M1196 2794l395 0 0 1190 -395 0 0 -1190zm-401 1597l783 0c15,0 19,-4 19,-19l0 -382 382 0c15,0 19,-4 19,-19l0 -1165c0,-15 -4,-19 -19,-19l-382 0 0 -382c0,-15 -4,-19 -19,-19l-783 0 0 2005z"/>
   <path class="fil0" d="M5983 3583l381 -1c25,0 6,-1 14,7l-1 395 -395 -1c-12,-14 -7,-70 -7,-101 0,-39 -11,-285 8,-299zm-409 -1177l0 1979 1203 0 0 -1203 -795 0 0 -776c0,-15 -4,-19 -19,-19l-369 0c-15,0 -19,4 -19,19z"/>
   <path class="fil0" d="M5976 1196l401 0 0 395 -401 0 0 -395zm401 -401l-802 0 0 1184c0,15 4,19 19,19l1184 0 0 -1998 -401 0 0 795z"/>
   <path class="fil0" d="M3984 4385l388 0c15,0 19,-4 19,-19l0 -1572 388 0 0 395 407 0 0 -802 -1203 0 0 1998z"/>
   <path class="fil0" d="M3984 1998l388 0c15,0 19,-4 19,-19l0 -1578 388 0 0 382c0,15 4,19 19,19l388 0 0 -802 -1203 0 0 1998z"/>
  </g>
 </g>
</svg>
