<?xml version="1.0" encoding="UTF-8"?>
<!DOCTYPE svg PUBLIC "-//W3C//DTD SVG 1.0//EN" "http://www.w3.org/TR/2001/REC-SVG-20010904/DTD/svg10.dtd">
<!-- Creator: CorelDRAW -->
<svg xmlns="http://www.w3.org/2000/svg" xml:space="preserve" width="28.963mm" height="8.8386mm" version="1.0" style="shape-rendering:geometricPrecision; text-rendering:geometricPrecision; image-rendering:optimizeQuality; fill-rule:evenodd; clip-rule:evenodd"
viewBox="0 0 3463 1057"
 xmlns:xlink="http://www.w3.org/1999/xlink"
 xmlns:xodm="http://www.corel.com/coreldraw/odm/2003">
 <defs>
  <style type="text/css">
   <![CDATA[
    .fil0 {fill:#E6E6E6}
    .fil1 {fill:#E6E6E6;fill-rule:nonzero}
   ]]>
  </style>
 </defs>
 <g id="_0">
  <metadata id="CorelCorpID_0Corel-Layer"/>
  <g id="_1406993734944">
   <path class="fil0" d="M1440 278c12,0 23,2 34,7 11,4 20,10 27,18 9,10 15,22 18,35 2,13 4,25 4,35l0 210c0,5 -1,11 -2,18 -1,7 -5,13 -10,19 -5,5 -12,8 -19,9 -8,1 -14,1 -21,1l-135 0c-10,0 -21,-1 -32,-2 -11,-2 -22,-6 -31,-14 -7,-6 -13,-13 -17,-21 -4,-9 -7,-17 -9,-26 -2,-9 -4,-17 -4,-25 0,-8 -1,-15 -1,-20 0,-14 2,-29 5,-44 3,-15 11,-28 24,-39 10,-8 21,-13 32,-15 12,-2 23,-3 33,-3l152 0 0 -52c0,-6 -1,-13 -3,-21 -2,-8 -6,-15 -10,-21 -4,-4 -8,-8 -15,-11 -6,-3 -14,-5 -22,-5l-170 0 0 -31 172 0 0 0zm-112 172c-10,0 -18,2 -25,6 -6,4 -11,8 -14,11 -4,6 -7,13 -9,22 -2,9 -2,20 -2,32 0,11 1,21 2,33 2,11 5,21 12,28 4,4 8,8 14,11 6,3 13,4 20,4l142 0c2,0 5,0 8,0 3,0 5,-1 8,-4 2,-2 4,-4 4,-6 0,-2 1,-4 1,-6l0 -132 -160 0 0 0z"/>
   <path class="fil0" d="M1642 166l0 112 110 0c9,0 19,1 30,2 11,1 22,4 33,8 11,4 21,10 31,17 10,7 19,18 26,30 6,9 10,19 13,30 3,11 5,21 7,32 2,11 3,21 3,31 0,10 1,20 1,29 0,8 0,17 -1,26 0,9 -1,19 -3,29 -2,10 -4,20 -7,30 -3,10 -7,19 -13,29 -8,13 -16,23 -26,30 -10,7 -20,13 -31,17 -11,4 -21,7 -32,8 -11,1 -21,2 -30,2l-75 0c-10,0 -20,-1 -30,-2 -10,-1 -18,-4 -24,-9 -7,-6 -12,-14 -14,-22 -2,-9 -3,-16 -3,-22l0 -408 34 0 0 0zm0 405c0,4 0,7 0,11 0,4 1,7 4,10 2,3 5,4 10,5 4,1 8,1 11,1l80 0c7,0 14,0 23,-1 9,-1 18,-3 27,-6 9,-3 18,-8 26,-14 8,-6 16,-15 22,-26 6,-11 10,-23 12,-37 2,-14 3,-29 3,-46 0,-8 0,-18 -1,-28 0,-10 -1,-20 -2,-30 -1,-10 -3,-19 -4,-28 -2,-9 -4,-16 -7,-22 -5,-11 -11,-20 -19,-27 -8,-7 -16,-12 -24,-15 -9,-3 -18,-5 -27,-7 -9,-1 -18,-2 -26,-2l-107 0 0 261z"/>
   <path class="fil0" d="M868 629l0 -416c0,-8 1,-15 4,-20 2,-5 5,-10 9,-13 6,-7 13,-11 20,-12 7,-1 14,-2 22,-2l266 0 0 32 -268 0c-2,0 -4,0 -6,0 -2,0 -4,1 -6,4 -2,2 -3,5 -3,7 0,3 -1,5 -1,7l0 161 208 0 0 32 -208 0 0 220 -36 0 0 0z"/>
   <path class="fil0" d="M2708 210c3,-6 5,-12 9,-18 3,-6 7,-11 11,-16 4,-5 9,-8 14,-11 5,-3 11,-4 18,-4 14,0 24,5 32,15 8,10 14,21 19,34l177 418 -38 0 -56 -135 -268 0 -56 135 -38 0 177 -418 0 0zm-69 252l240 0 -101 -241c-2,-5 -5,-10 -8,-17 -3,-6 -7,-10 -12,-10 -5,0 -9,3 -12,10 -3,6 -5,12 -8,17l-101 241 0 0z"/>
   <path class="fil0" d="M3093 227c0,-9 1,-17 3,-25 2,-8 5,-15 10,-20 6,-7 13,-11 20,-13 7,-2 14,-3 21,-3l213 0c17,0 31,3 42,8 11,5 20,11 27,18 7,7 12,14 15,22 4,8 7,17 9,26 2,9 3,18 4,26 1,9 1,17 1,24 0,14 -1,28 -3,41 -2,13 -8,26 -16,37 -6,7 -13,13 -19,17 -7,4 -14,6 -23,7l0 3c11,1 21,5 29,10 8,5 14,10 18,16 10,12 16,25 17,39 1,14 2,29 2,43 0,8 0,17 0,25 0,8 -1,17 -3,25 -2,8 -5,16 -8,24 -4,8 -9,16 -16,24 -11,12 -22,20 -32,23 -11,3 -22,4 -34,4l-204 0c-8,0 -18,0 -29,-1 -11,-1 -21,-5 -30,-14 -6,-7 -10,-14 -12,-22 -2,-8 -2,-15 -2,-22l0 -342zm36 334c0,10 0,16 1,20 1,4 2,7 3,8 3,4 8,6 14,6 6,1 12,1 17,1l184 0c4,0 9,0 15,0 6,0 11,-1 17,-2 5,-1 11,-3 16,-6 6,-3 10,-7 14,-13 3,-4 6,-9 7,-15 2,-6 3,-12 4,-19 1,-7 2,-13 2,-19 0,-6 1,-12 1,-18 0,-5 0,-10 -1,-17 0,-6 -1,-13 -2,-19 -1,-6 -2,-12 -4,-18 -2,-6 -3,-10 -6,-14 -4,-7 -11,-12 -20,-17 -9,-5 -18,-7 -28,-7l-237 0 0 149zm0 -181l216 0c10,0 21,-1 32,-3 11,-2 21,-8 28,-17 3,-4 6,-9 8,-16 2,-6 3,-13 4,-20 1,-7 2,-14 2,-20 0,-7 1,-12 1,-17 0,-12 -1,-23 -2,-32 -2,-9 -3,-16 -6,-22 -2,-6 -5,-10 -7,-14 -2,-3 -4,-6 -6,-8 -8,-7 -15,-11 -23,-12 -8,-1 -15,-2 -21,-2l-200 0c-4,0 -7,0 -11,0 -4,0 -7,2 -9,5 -2,2 -4,6 -5,10 -1,5 -2,8 -2,11l0 156z"/>
   <path class="fil0" d="M2210 629c-4,0 -9,0 -17,-1 -8,-1 -15,-4 -20,-9 -6,-5 -9,-10 -11,-16 -1,-6 -2,-11 -2,-16l0 -420 36 0 0 408c0,3 0,6 1,9 0,3 2,6 5,9 3,2 6,4 10,4 4,1 7,1 10,1l265 0 0 32 -275 0 0 0z"/>
   <path class="fil0" d="M2815 843c-4,-4 -9,-8 -15,-10 -6,-2 -12,-3 -18,-3l-83 0 0 29 82 0c3,0 5,0 6,1 2,1 3,2 4,3 1,1 2,3 3,6 1,3 1,6 1,7l0 15 -59 0c-5,0 -10,1 -16,2 -7,1 -13,4 -18,8 -7,6 -12,13 -13,21 -2,7 -2,14 -2,21 0,3 0,6 0,9 0,4 1,8 2,13 1,4 3,8 5,13 2,5 6,9 10,12 5,4 11,7 17,7 5,1 10,1 15,1l59 0c3,0 6,0 10,-1 5,-1 9,-3 13,-6 4,-3 6,-8 7,-13 1,-3 1,-6 1,-9l0 -92c0,-5 -1,-11 -2,-17 -1,-7 -5,-14 -10,-19l0 0zm-20 127c0,0 -1,0 -1,0l-62 0c-2,0 -4,0 -5,-1 -2,-1 -3,-2 -4,-3 -2,-2 -3,-5 -3,-8 -1,-5 -1,-9 -1,-13 0,-5 0,-9 1,-13 1,-3 1,-5 2,-6 0,0 2,-2 4,-3 1,-1 3,-1 7,-1l62 0 0 49z"/>
   <path class="fil0" d="M3123 855c-3,-4 -6,-8 -10,-11 -3,-2 -5,-4 -7,-5 -7,-4 -15,-7 -23,-8 -7,-1 -14,-2 -20,-2 -8,0 -17,1 -26,3 -10,2 -19,6 -27,13 -6,5 -10,10 -13,16 -3,6 -5,12 -7,18 -1,6 -2,12 -3,19 0,6 0,12 0,17 0,12 1,22 2,32 1,11 6,21 12,30 3,4 7,8 11,11 4,3 8,5 12,7 4,2 8,3 12,3 4,1 7,1 11,1l83 0 0 -29 -83 0c-4,0 -8,-1 -10,-2 -3,-1 -6,-3 -8,-5 -2,-2 -4,-4 -5,-7 -2,-3 -3,-5 -3,-7 -1,-3 -2,-8 -2,-14 0,-3 0,-5 0,-7l86 0c3,0 6,0 9,-1 5,-1 9,-3 12,-6 2,-2 4,-4 5,-7 1,-2 2,-5 2,-7 0,-2 1,-4 1,-7 0,-2 0,-3 0,-5 0,-9 -1,-17 -3,-23 -2,-6 -5,-12 -8,-16l0 0zm-21 43l-84 0c0,-4 1,-8 1,-11 1,-5 2,-9 5,-13 2,-4 5,-7 7,-8 3,-2 5,-3 8,-4 3,-1 6,-2 10,-2 4,0 7,0 11,0 3,0 7,0 10,0 3,0 6,1 9,1 3,1 6,2 8,3 2,1 4,3 6,6 2,2 4,6 6,10 2,4 3,9 3,16 0,0 0,1 0,2l0 0z"/>
   <path class="fil0" d="M2315 810c-2,2 -5,4 -8,5 9,19 14,41 14,63 0,15 -2,31 -8,46 -19,57 -69,94 -125,100 -1,9 -4,18 -9,25 65,-4 124,-46 145,-112 6,-17 8,-35 8,-52 0,-27 -7,-52 -19,-76l0 0z"/>
   <path class="fil0" d="M2175 731c15,0 31,2 46,8 3,1 7,2 10,4l11 -4c-7,-3 -13,-6 -20,-8 -17,-6 -35,-8 -52,-8 -69,0 -133,43 -155,112 -6,17 -8,35 -8,52 0,61 34,118 90,146 -1,-3 -1,-7 -1,-10 0,-6 1,-13 4,-18 -44,-27 -70,-75 -70,-125 0,-15 2,-31 8,-46 21,-62 78,-100 139,-100l0 0z"/>
   <path class="fil0" d="M2154 1055c-4,1 -8,2 -12,2l0 0c-14,0 -28,-9 -33,-23 -7,-18 3,-39 21,-45 18,-7 39,3 45,21 7,18 -3,39 -21,45l0 0z"/>
   <path class="fil0" d="M2316 722l-197 72c-7,3 -13,11 -13,18l0 31 0 33 197 -72c7,-3 13,-11 13,-18l0 -51 0 -14 0 0z"/>
   <path class="fil0" d="M2239 866l0 -14 -120 44c-7,3 -13,11 -13,18l0 9 0 55 120 -44c7,-3 13,-11 13,-18l0 -11 0 -9 0 -30z"/>
   <path class="fil0" d="M2567 810c0,0 0,0 0,0l124 0 0 -30 -124 0c-4,0 -7,0 -11,1 -5,1 -10,4 -13,8 -2,2 -4,5 -5,8 -2,4 -2,8 -2,12l0 190 31 0 0 -96 91 0 0 -30 -91 0 0 -63z"/>
   <path class="fil0" d="M3438 936c-2,-6 -6,-12 -12,-16 -5,-4 -12,-8 -20,-10 -7,-2 -15,-4 -24,-6l-28 -6 0 0c-1,0 -2,-1 -5,-1 -2,-1 -5,-1 -7,-2 -2,-1 -4,-2 -7,-3 -2,-1 -3,-2 -3,-2 -2,-2 -3,-4 -3,-6 -1,-4 -1,-6 -1,-8 0,-2 0,-4 1,-8 0,-2 1,-3 3,-5 1,-1 3,-2 5,-2 3,0 6,-1 7,-1l88 0 0 -29 -81 0c-8,0 -15,1 -22,2 -8,2 -16,7 -21,14 -6,8 -10,18 -10,30 0,5 1,10 2,15 1,6 4,11 8,16 1,1 3,3 4,4 2,2 5,4 8,5 3,2 7,4 11,5 5,2 10,3 16,5l27 6c6,1 10,2 14,3 4,1 7,2 10,3 3,1 4,2 6,2 1,1 2,1 3,2 0,0 1,2 2,4 0,1 1,3 1,7 0,2 0,5 -1,8 0,3 -1,4 -2,5 0,1 -2,2 -4,3 -2,1 -4,1 -8,1l-96 0 0 29 97 0c4,0 8,0 12,-1 6,-1 11,-3 16,-6 4,-2 7,-5 9,-9 2,-3 4,-7 5,-10 1,-3 2,-7 2,-11 0,-3 0,-6 0,-9 0,-6 -1,-11 -2,-16l0 0z"/>
   <path class="fil0" d="M2906 968c-4,0 -7,-1 -11,-3 -3,-1 -6,-3 -9,-6 -3,-2 -5,-5 -7,-9 -1,-1 -1,-3 -2,-6 -1,-3 -1,-6 -1,-9 0,-3 -1,-6 -1,-10 0,-3 0,-6 0,-8 0,-2 0,-4 0,-7 0,-3 0,-6 1,-10 0,-3 1,-7 1,-10 0,-3 1,-5 1,-7 2,-8 6,-14 12,-18 6,-4 14,-7 25,-7l61 0 0 -29 -60 0c-13,0 -24,2 -33,6 -8,4 -15,8 -20,13 -5,5 -8,10 -11,16 -3,6 -5,11 -6,17 -1,6 -2,12 -2,18 0,6 0,11 0,17 0,12 1,22 2,32 2,10 6,20 13,28 5,6 12,12 20,16 9,5 19,7 31,7l69 0 0 -29 -62 0c-3,0 -7,0 -11,-1l0 0z"/>
   <path class="fil0" d="M3269 843c-5,-6 -12,-9 -19,-11 -7,-2 -14,-2 -22,-2l-55 0c-3,0 -6,0 -9,1 -5,1 -9,4 -12,8 -2,3 -4,7 -4,11 0,3 -1,6 -1,8l0 141 31 0 0 -140 51 0c4,0 8,0 12,1 2,1 5,2 7,5 2,2 3,5 4,8 1,3 1,8 1,15l0 111 31 0 0 -114c0,-11 -1,-20 -5,-28 -3,-6 -6,-10 -9,-14l0 0z"/>
   <path class="fil1" d="M273 637l0 -86c3,-1 6,-3 9,-4 41,-24 45,-92 10,-153 -35,-60 -97,-89 -138,-65 -41,24 -45,92 -10,153 6,10 12,19 19,27l0 64 -88 -50 0 -315 -31 -20c-28,51 -44,110 -44,172 0,194 154,352 346,358l0 -37 -74 -43z"/>
   <path class="fil1" d="M171 137l54 32c-1,9 -1,19 -1,22 0,47 65,83 134,83 70,-1 120,-43 119,-85 0,-47 -46,-84 -116,-86 -24,-1 -46,4 -57,6l-39 -25 93 -53 275 160 32 -17c-30,-50 -73,-93 -127,-124 -168,-97 -382,-42 -483,121l31 20 85 -52z"/>
   <path class="fil1" d="M643 310l-58 31c-2,0 -15,-12 -18,-14 -41,-23 -102,7 -136,68 -34,61 -31,131 10,154 41,23 103,-5 137,-66 5,-10 13,-33 16,-43l50 -29 0 109 -274 160 0 36c58,-2 117,-18 171,-49 167,-98 226,-311 134,-480l-32 17 0 105z"/>
   <path class="fil1" d="M2486 963c0,2 0,4 0,6 0,2 -1,4 -1,6 0,2 -1,4 -2,6 -1,2 -2,4 -4,5 -3,3 -6,4 -10,5 -4,1 -7,1 -10,1l-73 0 0 22 76 0c5,0 10,-1 15,-2 5,-1 10,-4 15,-9 3,-3 5,-6 7,-10 2,-4 3,-7 4,-11 1,-4 1,-7 2,-11 0,-3 0,-7 0,-9 0,-3 0,-6 0,-9 0,-3 -1,-7 -2,-11 -1,-4 -2,-7 -4,-11 -2,-4 -4,-7 -7,-10 -5,-4 -9,-7 -15,-9 -5,-1 -10,-2 -15,-2l-76 0 0 22 73 0c1,0 3,0 5,0 2,0 4,0 5,1 2,0 4,1 5,2 2,1 3,2 5,3 2,2 3,3 4,5 1,2 2,4 2,6 1,2 1,4 1,6 0,2 0,4 0,5zm16 -68l0 -20 -69 0c-1,0 -1,0 -2,0 -1,0 -1,0 -2,-1 -1,-1 -1,-1 -1,-2 0,-1 0,-1 0,-2l0 -20c0,-4 0,-6 1,-9 1,-2 2,-4 4,-5 2,-2 5,-3 7,-3 3,0 6,-1 9,-1l53 0 0 -20 -59 0c-6,0 -11,1 -15,3 -4,2 -6,4 -9,6 -3,4 -5,7 -6,12 -1,4 -1,9 -1,13l0 31c0,2 0,4 0,7 0,3 1,5 4,7 1,1 3,2 5,2 2,0 3,0 5,0l76 0zm0 -95l0 -20 -89 0 0 20 89 0zm-102 -20l-16 0 0 20 16 0 0 -20z"/>
  </g>
 </g>
</svg>
